<svg xmlns="http://www.w3.org/2000/svg" fill="none" viewBox="0 0 24 24" height="24" width="24"><path fill="#ffffff" d="M19.5 3.5a1 1 0 0 1 1 1v18a1 1 0 0 1 -1 1h-18a1 1 0 0 1 -1 -1v-18a1 1 0 0 1 1 -1h18Z" stroke-width="1"></path><path fill="#e4f1f5" d="m20.5 9.411 -2.025 -1.606c-0.224 0.09 -0.452 0.165 -0.673 0.269a14.207 14.207 0 0 0 -6.919 7.364l-5.594 2.609a0.5 0.5 0 0 0 0.422 0.906l5.595 -2.609a14.2 14.2 0 0 0 9.194 -0.207V9.411Z" stroke-width="1"></path><path fill="#ff4447" d="M16.5 2.273 17 5l-2.965 -0.988c-0.18 0.161 -0.368 0.31 -0.54 0.483A14.194 14.194 0 0 0 9.5 14.5a14.2 14.2 0 0 0 10 -3.995A14.2 14.2 0 0 0 23.5 0.5c-2.444 0.001 -4.85 0.61 -7 1.773Z" stroke-width="1"></path><path fill="#ffb4b4" d="M23.5 0.5c-2.444 0.001 -4.85 0.61 -7 1.773L17 5l-2.965 -0.988c-0.18 0.161 -0.368 0.31 -0.54 0.483A14.194 14.194 0 0 0 9.5 14.5l14 -14Z" stroke-width="1"></path><path stroke="#191919" stroke-linecap="round" stroke-linejoin="round" d="M16.5 2.273 17 5l-2.965 -0.988c-0.18 0.161 -0.368 0.31 -0.54 0.483A14.194 14.194 0 0 0 9.5 14.5a14.2 14.2 0 0 0 10 -3.995A14.2 14.2 0 0 0 23.5 0.5c-2.444 0.001 -4.85 0.61 -7 1.773v0Z" stroke-width="1"></path><path stroke="#191919" stroke-linecap="round" stroke-linejoin="round" d="M20.5 14v8.5a1 1 0 0 1 -1 1h-18a1 1 0 0 1 -1 -1v-18a1 1 0 0 1 1 -1H10" stroke-width="1"></path><path stroke="#191919" stroke-linecap="round" stroke-linejoin="round" d="M16.22 7.78 5.5 18.5" stroke-width="1"></path></svg>