<svg xmlns="http://www.w3.org/2000/svg" fill="none" viewBox="-0.5 -0.5 48 48" height="48" width="48"><path fill="#66e1ff" d="M34.278666666666666 10.755166666666666h-31.333333333333332a1.9583333333333333 1.9583333333333333 0 0 0 -1.9583333333333333 1.9583333333333333v29.375a1.9583333333333333 1.9583333333333333 0 0 0 1.9583333333333333 1.9583333333333333h31.333333333333332a1.9583333333333333 1.9583333333333333 0 0 0 1.9583333333333333 -1.9583333333333333v-29.375a1.9583333333333333 1.9583333333333333 0 0 0 -1.9583333333333333 -1.9583333333333333Z" stroke-width="1"></path><path fill="#c2f3ff" d="M34.27083333333333 10.755166666666666h-31.333333333333332a1.9583333333333333 1.9583333333333333 0 0 0 -1.9583333333333333 1.9583333333333333v29.375a1.9583333333333333 1.9583333333333333 0 0 0 1.9172083333333332 1.9583333333333333L35.641666666666666 11.309375000000001a1.9583333333333333 1.9583333333333333 0 0 0 -1.3708333333333331 -0.5542083333333333Z" stroke-width="1"></path><path fill="#ffef5e" d="M28.395833333333332 17.625a6.854166666666666 6.854166666666666 0 1 0 0 -13.708333333333332 6.854166666666666 6.854166666666666 0 0 0 0 13.708333333333332Z" stroke-width="1"></path><path fill="#78eb7b" d="m17.625 34.25516666666667 -3.256708333333333 -3.9166666666666665a1.9583333333333333 1.9583333333333333 0 0 0 -3.107875 0.13120833333333334L5.875 38.17183333333333h25.458333333333332l-6.070833333333333 -12.163208333333333a1.9583333333333333 1.9583333333333333 0 0 0 -3.503458333333333 0L15.666666666666666 38.17183333333333" stroke-width="1"></path><path stroke="#191919" stroke-linecap="round" stroke-linejoin="round" d="M36.229166666666664 25.458333333333332v16.645833333333332a1.9583333333333333 1.9583333333333333 0 0 1 -1.9583333333333333 1.9583333333333333h-31.333333333333332a1.9583333333333333 1.9583333333333333 0 0 1 -1.9583333333333333 -1.9583333333333333v-29.375a1.9583333333333333 1.9583333333333333 0 0 1 1.9583333333333333 -1.9583333333333333H15.666666666666666" stroke-width="1"></path><path fill="#ffef5e" d="M9.799499999999998 22.505166666666668a2.9375 2.9375 0 1 0 0 -5.875 2.9375 2.9375 0 0 0 0 5.875Z" stroke-width="1"></path><path stroke="#191919" stroke-linecap="round" stroke-linejoin="round" d="m46.013 28.395833333333332 -17.491833333333332 -17.491833333333332" stroke-width="1"></path><path stroke="#191919" stroke-linecap="round" stroke-linejoin="round" d="m22.981041666666666 5.363874999999999 2.7710416666666666 2.769083333333333" stroke-width="1"></path><path stroke="#191919" stroke-linecap="round" stroke-linejoin="round" d="m30.931874999999998 2.9531666666666667 -0.76375 3.840291666666667" stroke-width="1"></path><path stroke="#191919" stroke-linecap="round" stroke-linejoin="round" d="m37.35520833333333 8.223041666666665 -3.619 1.5000833333333332" stroke-width="1"></path><path stroke="#191919" stroke-linecap="round" stroke-linejoin="round" d="m20.57033333333333 13.314708333333334 3.840291666666667 -0.76375" stroke-width="1"></path><path stroke="#191919" stroke-linecap="round" stroke-linejoin="round" d="m25.840208333333333 19.738041666666668 1.5000833333333332 -3.619" stroke-width="1"></path><path stroke="#191919" stroke-linecap="round" stroke-linejoin="round" d="m17.625 34.25516666666667 -3.256708333333333 -3.9166666666666665a1.9583333333333333 1.9583333333333333 0 0 0 -3.107875 0.13120833333333334L5.875 38.17183333333333h25.458333333333332l-6.070833333333333 -12.163208333333333a1.9583333333333333 1.9583333333333333 0 0 0 -3.503458333333333 0L15.666666666666666 38.17183333333333" stroke-width="1"></path><path stroke="#191919" stroke-linecap="round" stroke-linejoin="round" d="M9.799499999999998 22.505166666666668a2.9375 2.9375 0 1 0 0 -5.875 2.9375 2.9375 0 0 0 0 5.875Z" stroke-width="1"></path></svg>