<svg xmlns="http://www.w3.org/2000/svg" fill="none" viewBox="-0.5 -0.5 48 48" height="48" width="48"><path fill="#66e1ff" d="M46.02083333333333 8.8125H0.9791666666666666v29.375h45.041666666666664v-29.375Z" stroke-width="1"></path><path fill="#c2f3ff" d="M0.9791666666666666 8.8125v29.375h6.125666666666667l29.375 -29.375H0.9791666666666666Z" stroke-width="1"></path><path stroke="#191919" stroke-linecap="round" stroke-linejoin="round" d="M46.02083333333333 8.8125H0.9791666666666666v29.375h45.041666666666664v-29.375Z" stroke-width="1"></path><path fill="#e3e3e3" d="M46.02083333333333 4.895833333333333v3.9166666666666665H0.9791666666666666v-3.9166666666666665a3.9284166666666662 3.9284166666666662 0 0 1 3.9166666666666665 -3.9166666666666665h37.20833333333333a3.9284166666666662 3.9284166666666662 0 0 1 3.9166666666666665 3.9166666666666665Z" stroke-width="1"></path><path fill="#e3e3e3" d="M0.9791666666666666 38.1875h45.041666666666664v3.9166666666666665a3.9284166666666662 3.9284166666666662 0 0 1 -3.9166666666666665 3.9166666666666665h-37.20833333333333a3.9284166666666662 3.9284166666666662 0 0 1 -3.9166666666666665 -3.9166666666666665v-3.9166666666666665Z" stroke-width="1"></path><path fill="#ffffff" d="M17.4605 16.45A1.28075 1.28075 0 0 0 15.666666666666666 17.625v11.75a1.28075 1.28075 0 0 0 1.7938333333333334 1.1749999999999998l12.975916666666667 -5.679166666666666a1.4961666666666666 1.4961666666666666 0 0 0 0 -2.7416666666666663L17.4605 16.45Z" stroke-width="1"></path><path stroke="#191919" stroke-linecap="round" stroke-linejoin="round" d="M46.02083333333333 4.895833333333333v3.9166666666666665H0.9791666666666666v-3.9166666666666665a3.9284166666666662 3.9284166666666662 0 0 1 3.9166666666666665 -3.9166666666666665h37.20833333333333a3.9284166666666662 3.9284166666666662 0 0 1 3.9166666666666665 3.9166666666666665v0Z" stroke-width="1"></path><path stroke="#191919" stroke-linecap="round" stroke-linejoin="round" d="M0.9791666666666666 38.1875h45.041666666666664v3.9166666666666665a3.9284166666666662 3.9284166666666662 0 0 1 -3.9166666666666665 3.9166666666666665h-37.20833333333333a3.9284166666666662 3.9284166666666662 0 0 1 -3.9166666666666665 -3.9166666666666665v-3.9166666666666665Z" stroke-width="1"></path><path stroke="#191919" stroke-linecap="round" stroke-linejoin="round" d="M17.4605 16.45A1.28075 1.28075 0 0 0 15.666666666666666 17.625v11.75a1.28075 1.28075 0 0 0 1.7938333333333334 1.1749999999999998l12.975916666666667 -5.679166666666666a1.4961666666666666 1.4961666666666666 0 0 0 0 -2.7416666666666663L17.4605 16.45Z" stroke-width="1"></path><path stroke="#191919" d="M15.421875 5.385416666666666a0.4895833333333333 0.4895833333333333 0 0 1 0 -0.9791666666666666" stroke-width="1"></path><path stroke="#191919" d="M15.421875 5.385416666666666a0.4895833333333333 0.4895833333333333 0 0 0 0 -0.9791666666666666" stroke-width="1"></path><path stroke="#191919" d="M7.34375 5.385416666666666a0.4895833333333333 0.4895833333333333 0 0 1 0 -0.9791666666666666" stroke-width="1"></path><path stroke="#191919" d="M7.34375 5.385416666666666a0.4895833333333333 0.4895833333333333 0 0 0 0 -0.9791666666666666" stroke-width="1"></path><path stroke="#191919" d="M7.34375 42.59375a0.4895833333333333 0.4895833333333333 0 1 1 0 -0.9791666666666666" stroke-width="1"></path><path stroke="#191919" d="M7.34375 42.59375a0.4895833333333333 0.4895833333333333 0 1 0 0 -0.9791666666666666" stroke-width="1"></path><path stroke="#191919" d="M23.5 5.385416666666666a0.4895833333333333 0.4895833333333333 0 1 1 0 -0.9791666666666666" stroke-width="1"></path><path stroke="#191919" d="M23.5 5.385416666666666a0.4895833333333333 0.4895833333333333 0 1 0 0 -0.9791666666666666" stroke-width="1"></path><path stroke="#191919" d="M31.578125 5.385416666666666a0.4895833333333333 0.4895833333333333 0 1 1 0 -0.9791666666666666" stroke-width="1"></path><path stroke="#191919" d="M31.578125 5.385416666666666a0.4895833333333333 0.4895833333333333 0 1 0 0 -0.9791666666666666" stroke-width="1"></path><g><path stroke="#191919" d="M39.65625 5.385416666666666a0.4895833333333333 0.4895833333333333 0 1 1 0 -0.9791666666666666" stroke-width="1"></path><path stroke="#191919" d="M39.65625 5.385416666666666a0.4895833333333333 0.4895833333333333 0 1 0 0 -0.9791666666666666" stroke-width="1"></path></g><g><path stroke="#191919" d="M15.421875 42.59375a0.4895833333333333 0.4895833333333333 0 1 1 0 -0.9791666666666666" stroke-width="1"></path><path stroke="#191919" d="M15.421875 42.59375a0.4895833333333333 0.4895833333333333 0 1 0 0 -0.9791666666666666" stroke-width="1"></path></g><g><path stroke="#191919" d="M23.5 42.59375a0.4895833333333333 0.4895833333333333 0 1 1 0 -0.9791666666666666" stroke-width="1"></path><path stroke="#191919" d="M23.5 42.59375a0.4895833333333333 0.4895833333333333 0 1 0 0 -0.9791666666666666" stroke-width="1"></path></g><g><path stroke="#191919" d="M31.578125 42.59375a0.4895833333333333 0.4895833333333333 0 1 1 0 -0.9791666666666666" stroke-width="1"></path><path stroke="#191919" d="M31.578125 42.59375a0.4895833333333333 0.4895833333333333 0 1 0 0 -0.9791666666666666" stroke-width="1"></path></g><g><path stroke="#191919" d="M39.65625 42.59375a0.4895833333333333 0.4895833333333333 0 1 1 0 -0.9791666666666666" stroke-width="1"></path><path stroke="#191919" d="M39.65625 42.59375a0.4895833333333333 0.4895833333333333 0 1 0 0 -0.9791666666666666" stroke-width="1"></path></g></svg>