<svg xmlns="http://www.w3.org/2000/svg" fill="none" viewBox="-0.5 -0.5 48 48" height="48" width="48"><path fill="#66e1ff" d="M23.5 46.01691666666667c12.437375 0 22.520833333333332 -10.083458333333333 22.520833333333332 -22.520833333333332S35.937374999999996 0.97525 23.5 0.97525 0.9791666666666666 11.058708333333334 0.9791666666666666 23.49608333333333s10.083458333333333 22.520833333333332 22.520833333333332 22.520833333333332Z" stroke-width="1"></path><path fill="#c2f3ff" d="M7.762833333333333 29.375A22.520833333333332 22.520833333333332 0 0 1 41.338458333333335 9.750541666666667a22.520833333333332 22.520833333333332 0 1 0 -28.89325 33.37A22.417041666666663 22.417041666666663 0 0 1 7.762833333333333 29.375Z" stroke-width="1"></path><path stroke="#191919" stroke-linecap="round" stroke-linejoin="round" d="M3.716916666666666 34.27083333333333H18.604166666666664" stroke-width="1"></path><path stroke="#191919" stroke-linecap="round" stroke-linejoin="round" d="M4.919333333333333 10.770833333333332h37.177" stroke-width="1"></path><path stroke="#191919" stroke-linecap="round" stroke-linejoin="round" d="M16.645833333333332 22.520833333333332H1.0007083333333333" stroke-width="1"></path><path stroke="#191919" stroke-linecap="round" stroke-linejoin="round" d="M22.068458333333332 1.0300833333333332c-11.75 12.729166666666666 -11.536541666666666 29.292749999999998 0.21345833333333333 44.95941666666666" stroke-width="1"></path><path stroke="#191919" stroke-linecap="round" stroke-linejoin="round" d="M24.929583333333333 1.0300833333333332A31.58204166666666 31.58204166666666 0 0 1 33.291666666666664 17.625" stroke-width="1"></path><path stroke="#191919" stroke-linecap="round" stroke-linejoin="round" d="M46.02083333333333 23.5A22.520833333333332 22.520833333333332 0 1 0 23.5 46.02083333333333" stroke-width="1"></path><path fill="#ffef5e" d="m39.098124999999996 32.132333333333335 4.290708333333333 -4.292666666666666a0.9791666666666666 0.9791666666666666 0 0 0 -0.4249583333333333 -1.6332499999999999l-21.345833333333335 -6.082583333333333a0.9791666666666666 0.9791666666666666 0 0 0 -1.2082916666666665 1.2082916666666665l6.070833333333333 21.345833333333335a0.9791666666666666 0.9791666666666666 0 0 0 1.6352083333333332 0.4249583333333333l4.0145833333333325 -4.012625 6.231416666666666 6.2294583333333335a0.9791666666666666 0.9791666666666666 0 0 0 1.3845416666666666 0l5.583208333333333 -5.5655833333333335a0.9791666666666666 0.9791666666666666 0 0 0 0 -1.3845416666666666l-6.231416666666666 -6.237291666666667Z" stroke-width="1"></path><path fill="#fff9bf" d="m42.538916666666665 42.538916666666665 2.7886666666666664 -2.78475a0.9791666666666666 0.9791666666666666 0 0 0 0 -1.3845416666666666l-6.2294583333333335 -6.231416666666666 4.290708333333333 -4.292666666666666a0.9791666666666666 0.9791666666666666 0 0 0 -0.4249583333333333 -1.6332499999999999l-21.345833333333335 -6.082583333333333a0.9791666666666666 0.9791666666666666 0 0 0 -0.9615416666666666 0.24870833333333334l21.882416666666664 22.1605Z" stroke-width="1"></path><path stroke="#191919" stroke-linecap="round" stroke-linejoin="round" d="m39.098124999999996 32.132333333333335 4.290708333333333 -4.292666666666666a0.9791666666666666 0.9791666666666666 0 0 0 -0.4249583333333333 -1.6332499999999999l-21.345833333333335 -6.082583333333333a0.9791666666666666 0.9791666666666666 0 0 0 -1.2082916666666665 1.2082916666666665l6.070833333333333 21.345833333333335a0.9791666666666666 0.9791666666666666 0 0 0 1.6352083333333332 0.4249583333333333l4.0145833333333325 -4.012625 6.231416666666666 6.2294583333333335a0.9791666666666666 0.9791666666666666 0 0 0 1.3845416666666666 0l5.583208333333333 -5.5655833333333335a0.9791666666666666 0.9791666666666666 0 0 0 0 -1.3845416666666666l-6.231416666666666 -6.237291666666667Z" stroke-width="1"></path></svg>